<svg xmlns="http://www.w3.org/2000/svg" version="1.1" xmlns:xlink="http://www.w3.org/1999/xlink" xmlns:svgjs="http://svgjs.dev/svgjs" width="1500" height="1500" viewBox="0 0 1500 1500"><rect width="1500" height="1500" fill="#000000"></rect><g transform="matrix(0.6666666666666666,0,0,0.6666666666666666,249.3941639789394,457.3101207085715)"><svg viewBox="0 0 396 232" data-background-color="#fffff5" preserveAspectRatio="xMidYMid meet" height="878" width="1500" xmlns="http://www.w3.org/2000/svg" xmlns:xlink="http://www.w3.org/1999/xlink"><g id="tight-bounds" transform="matrix(1,0,0,1,0.24008893566008283,0.009200448083291235)"><svg viewBox="0 0 395.52 231.98159910383342" height="231.98159910383342" width="395.52"><g><svg viewBox="0 0 397.49759999999986 233.14150709935254" height="231.98159910383342" width="395.52"><g><svg viewBox="0 0 397.49759999999986 233.14150709935254" height="233.14150709935254" width="397.49759999999986"><g id="textblocktransform"><svg viewBox="0 0 397.49759999999986 233.14150709935254" height="233.14150709935254" width="397.49759999999986" id="textblock"><g><rect width="397.49759999999986" height="14.543248901193548" x="0" y="178.39937020916688" fill="#ffffff" opacity="1" stroke-width="0" stroke="transparent" fill-opacity="1" class="rect-qz-0" data-fill-palette-color="primary" rx="1%" id="qz-0" data-palette-color="#091627"></rect></g><g transform="matrix(1,0,0,1,0.9887999999999693,0)"><svg viewBox="0 0 395.5199999999999 161.26727071823206" height="161.26727071823206" width="395.5199999999999"><g transform="matrix(1,0,0,1,0,0)"><svg width="395.5199999999999" viewBox="3 -36.2 90.49 36.900000000000006" height="161.26727071823206" data-palette-color="#091627"><path d="M15.45 0.55L15.45 0.55Q13.45 0.55 11.83-0.1 10.2-0.75 8.9-1.4L8.9-1.4Q7.8-2 7.08-2.3 6.35-2.6 5.8-2.6L5.8-2.6Q5.1-2.6 4.83-2.02 4.55-1.45 4.4-0.75L4.4-0.75 4.25 0 3 0 3.25-5.9 3.1-12.35 4.35-12.35 4.9-10Q5.45-7.8 6.88-5.7 8.3-3.6 10.48-2.25 12.65-0.9 15.45-0.9L15.45-0.9Q17-0.9 18.43-1.58 19.85-2.25 20.78-3.65 21.7-5.05 21.7-7.3L21.7-7.3Q21.7-10.65 19.53-12.7 17.35-14.75 13.5-16.6L13.5-16.6 11.4-17.6Q7.65-19.4 5.83-21.58 4-23.75 4-27.15L4-27.15Q4-29.8 5.3-31.85 6.6-33.9 8.88-35.05 11.15-36.2 14.1-36.2L14.1-36.2Q16.15-36.2 17.55-35.65 18.95-35.1 19.75-34.7L19.75-34.7Q21.05-34.05 21.8-34.05L21.8-34.05Q22.6-34.05 22.75-35.6L22.75-35.6 24-35.6 23.85-30.8 23.95-25.95 22.7-25.95Q22.4-28.75 21.15-30.73 19.9-32.7 18.13-33.75 16.35-34.8 14.35-34.8L14.35-34.8Q11.4-34.8 9.58-33.1 7.75-31.4 7.75-28.75L7.75-28.75Q7.75-25.9 9.6-24.28 11.45-22.65 14.4-21.2L14.4-21.2 16.45-20.2Q19.2-18.85 21.18-17.43 23.15-16 24.23-14.1 25.3-12.2 25.3-9.35L25.3-9.35Q25.3-6.4 23.98-4.15 22.65-1.9 20.43-0.68 18.2 0.55 15.45 0.55ZM37.45 0L30.05 0.15 30.05-1.1 31.05-1.2Q32.8-1.4 33.72-1.73 34.65-2.05 35-3.13 35.35-4.2 35.35-6.65L35.35-6.65 35.35-28.85Q35.35-31.35 35-32.4 34.65-33.45 33.72-33.77 32.8-34.1 31.05-34.3L31.05-34.3 30.05-34.4 30.05-35.65 37.45-35.5 37.5-35.5 44.9-35.65 44.9-34.4 43.9-34.3Q42.2-34.1 41.25-33.77 40.3-33.45 39.95-32.4 39.6-31.35 39.6-28.85L39.6-28.85 39.6-6.65Q39.6-4.2 39.95-3.13 40.3-2.05 41.25-1.73 42.2-1.4 43.9-1.2L43.9-1.2 44.9-1.1 44.9 0.15 37.5 0 37.45 0ZM65.59 0L57.2 0.15 57.2-1.1 58.3-1.2Q60.35-1.4 61.42-1.73 62.5-2.05 62.92-3.13 63.34-4.2 63.34-6.65L63.34-6.65 63.34-34.15 56.3-34.15Q54-34.15 52.67-33.27 51.35-32.4 50.37-30.45 49.4-28.5 48.1-25.25L48.1-25.25 47.05-25.5 48.3-31.65 48.85-35.65 63.09-35.5 67.84-35.5 82.15-35.65 82.7-31.65 83.95-25.5 82.84-25.2Q81.7-28.1 80.72-30.1 79.75-32.1 78.45-33.13 77.15-34.15 75-34.15L75-34.15 67.59-34.15 67.59-6.65Q67.59-4.2 68.02-3.13 68.45-2.05 69.55-1.73 70.65-1.4 72.65-1.2L72.65-1.2 73.75-1.1 73.75 0.15 65.59 0ZM91.09-9.95L89.49-9.95Q89.34-15.5 88.87-21.05 88.39-26.6 87.84-32.15L87.84-32.15Q87.64-34.3 88.42-35.25 89.19-36.2 90.29-36.2L90.29-36.2Q91.29-36.2 92.04-35.4 92.79-34.6 92.79-32.85L92.79-32.85Q92.79-32.7 92.77-32.52 92.74-32.35 92.74-32.15L92.74-32.15Q92.24-26.6 91.72-21.08 91.19-15.55 91.09-9.95L91.09-9.95ZM90.29 0.7L90.29 0.7Q88.99 0.7 88.04-0.25 87.09-1.2 87.09-2.5L87.09-2.5Q87.09-3.8 88.04-4.75 88.99-5.7 90.29-5.7L90.29-5.7Q91.59-5.7 92.54-4.75 93.49-3.8 93.49-2.5L93.49-2.5Q93.49-1.2 92.54-0.25 91.59 0.7 90.29 0.7Z" opacity="1" transform="matrix(1,0,0,1,0,0)" fill="#ffffff" class="wordmark-text-0" data-fill-palette-color="primary" id="text-0"></path></svg></g></svg></g><g transform="matrix(1,0,0,1,0,210.07471860129525)"><svg viewBox="0 0 395.5199999999999 23.066788498057313" height="23.066788498057313" width="395.5199999999999"><g transform="matrix(1,0,0,1,0,0)"><svg width="395.5199999999999" viewBox="-0.15972227777499998 -35.35 614.469722277775 35.84" height="23.066788498057313" data-palette-color="#cdb203"><path d="M12.4 0L12.4 0 6.67 0Q6.49 0 6.49-0.2L6.49-0.2 6.54-14.4-0.15-34.59Q-0.2-34.79 0-34.79L0-34.79 5.57-34.79Q5.81-34.79 5.86-34.59L5.86-34.59 9.55-21.14 13.31-34.59Q13.35-34.79 13.55-34.79L13.55-34.79 19.17-34.79Q19.36-34.79 19.31-34.59L19.31-34.59 12.55-14.6 12.6-0.2Q12.6 0 12.4 0ZM27.78 0.49L27.78 0.49Q25.12 0.49 22.87-0.88L22.87-0.88Q20.65-2.25 19.3-4.53 17.94-6.81 17.94-9.55L17.94-9.55 17.99-25.39Q17.99-28.17 19.33-30.4L19.33-30.4Q20.65-32.64 22.9-34 25.14-35.35 27.78-35.35L27.78-35.35Q30.52-35.35 32.69-34.01L32.69-34.01Q34.89-32.67 36.22-30.41 37.55-28.15 37.55-25.39L37.55-25.39 37.6-9.55Q37.6-6.81 36.28-4.54L36.28-4.54Q34.93-2.25 32.71-0.88 30.49 0.49 27.78 0.49ZM27.78-5.54L27.78-5.54Q29.29-5.54 30.42-6.77 31.54-8.01 31.54-9.55L31.54-9.55 31.49-25.39Q31.49-27.05 30.44-28.2 29.39-29.35 27.78-29.35L27.78-29.35Q26.24-29.35 25.14-28.22 24.05-27.1 24.05-25.39L24.05-25.39 24.05-9.55Q24.05-7.91 25.14-6.73 26.24-5.54 27.78-5.54ZM50.56 0.49L50.56 0.49Q47.92 0.49 45.67-0.88L45.67-0.88Q43.43-2.25 42.1-4.55 40.77-6.86 40.77-9.59L40.77-9.59 40.86-34.59Q40.86-34.79 41.06-34.79L41.06-34.79 46.67-34.79Q46.87-34.79 46.87-34.59L46.87-34.59 46.87-9.59Q46.87-7.91 47.94-6.73 49.02-5.54 50.56-5.54L50.56-5.54Q52.17-5.54 53.24-6.73 54.32-7.91 54.32-9.59L54.32-9.59 54.32-34.59Q54.32-34.79 54.51-34.79L54.51-34.79 60.13-34.79Q60.32-34.79 60.32-34.59L60.32-34.59 60.42-9.59Q60.42-6.84 59.1-4.52L59.1-4.52Q57.76-2.22 55.54-0.87 53.32 0.49 50.56 0.49ZM70.21 0L70.21 0 64.54 0Q64.35 0 64.35-0.24L64.35-0.24 64.45-34.59Q64.45-34.79 64.64-34.79L64.64-34.79 74.75-34.79Q77.46-34.79 79.73-33.47L79.73-33.47Q82-32.15 83.35-29.93 84.71-27.71 84.71-24.9L84.71-24.9Q84.71-23.07 84.15-21.58L84.15-21.58Q83.59-20.09 82.84-19.07 82.1-18.04 81.49-17.55L81.49-17.55Q84.2-14.55 84.2-10.5L84.2-10.5 84.25-0.24Q84.25 0 84 0L84 0 78.34 0Q78.14 0 78.14-0.15L78.14-0.15 78.14-10.5Q78.14-12.3 76.87-13.62 75.6-14.94 73.75-14.94L73.75-14.94 70.45-14.94 70.4-0.24Q70.4 0 70.21 0ZM74.75-28.81L74.75-28.81 70.45-28.81 70.45-20.95 74.75-20.95Q76.29-20.95 77.49-22.09 78.7-23.24 78.7-24.9L78.7-24.9Q78.7-26.49 77.53-27.65 76.36-28.81 74.75-28.81ZM112.1 0L112.1 0 106.46 0Q106.24 0 106.24-0.24L106.24-0.24 106.24-28.76 99.74-28.76Q99.5-28.76 99.5-29L99.5-29 99.55-34.59Q99.55-34.79 99.74-34.79L99.74-34.79 118.74-34.79Q119.01-34.79 119.01-34.59L119.01-34.59 119.01-29Q119.01-28.76 118.81-28.76L118.81-28.76 112.24-28.76 112.29-0.24Q112.29 0 112.1 0ZM127.28 0L127.28 0 121.62 0Q121.42 0 121.42-0.24L121.42-0.24 121.52-34.59Q121.52-34.79 121.71-34.79L121.71-34.79 131.82-34.79Q134.53-34.79 136.8-33.47L136.8-33.47Q139.07-32.15 140.43-29.93 141.78-27.71 141.78-24.9L141.78-24.9Q141.78-23.07 141.22-21.58L141.22-21.58Q140.66-20.09 139.91-19.07 139.17-18.04 138.56-17.55L138.56-17.55Q141.27-14.55 141.27-10.5L141.27-10.5 141.32-0.24Q141.32 0 141.07 0L141.07 0 135.41 0Q135.21 0 135.21-0.15L135.21-0.15 135.21-10.5Q135.21-12.3 133.94-13.62 132.68-14.94 130.82-14.94L130.82-14.94 127.52-14.94 127.48-0.24Q127.48 0 127.28 0ZM131.82-28.81L131.82-28.81 127.52-28.81 127.52-20.95 131.82-20.95Q133.36-20.95 134.57-22.09 135.78-23.24 135.78-24.9L135.78-24.9Q135.78-26.49 134.6-27.65 133.43-28.81 131.82-28.81ZM154.72 0.49L154.72 0.49Q152.08 0.49 149.84-0.88L149.84-0.88Q147.59-2.25 146.26-4.55 144.93-6.86 144.93-9.59L144.93-9.59 145.03-34.59Q145.03-34.79 145.22-34.79L145.22-34.79 150.84-34.79Q151.03-34.79 151.03-34.59L151.03-34.59 151.03-9.59Q151.03-7.91 152.11-6.73 153.18-5.54 154.72-5.54L154.72-5.54Q156.33-5.54 157.4-6.73 158.48-7.91 158.48-9.59L158.48-9.59 158.48-34.59Q158.48-34.79 158.67-34.79L158.67-34.79 164.29-34.79Q164.48-34.79 164.48-34.59L164.48-34.59 164.58-9.59Q164.58-6.84 163.26-4.52L163.26-4.52Q161.92-2.22 159.7-0.87 157.48 0.49 154.72 0.49ZM177.01 0.49L177.01 0.49Q174.35 0.49 172.1-0.88L172.1-0.88Q169.88-2.25 168.55-4.53 167.22-6.81 167.22-9.55L167.22-9.55 167.22-11.84Q167.22-12.11 167.46-12.11L167.46-12.11 173.08-12.11Q173.27-12.11 173.27-11.84L173.27-11.84 173.27-9.55Q173.27-7.91 174.37-6.73 175.47-5.54 177.01-5.54L177.01-5.54Q178.57-5.54 179.67-6.75 180.77-7.96 180.77-9.55L180.77-9.55Q180.77-11.38 178.37-12.74L178.37-12.74Q177.98-12.99 177.36-13.34 176.74-13.7 175.88-14.16L175.88-14.16Q175.03-14.62 174.22-15.08 173.42-15.53 172.66-15.94L172.66-15.94Q169.93-17.55 168.6-19.98 167.27-22.41 167.27-25.44L167.27-25.44Q167.27-28.22 168.63-30.47L168.63-30.47Q170-32.69 172.21-34 174.42-35.3 177.01-35.3L177.01-35.3Q179.67-35.3 181.89-33.98L181.89-33.98Q184.11-32.64 185.44-30.42 186.77-28.2 186.77-25.44L186.77-25.44 186.77-21.34Q186.77-21.14 186.58-21.14L186.58-21.14 180.96-21.14Q180.77-21.14 180.77-21.34L180.77-21.34 180.72-25.44Q180.72-27.2 179.62-28.3 178.52-29.39 177.01-29.39L177.01-29.39Q175.47-29.39 174.37-28.22 173.27-27.05 173.27-25.44L173.27-25.44Q173.27-23.8 173.97-22.71 174.66-21.61 176.52-20.61L176.52-20.61Q176.71-20.51 177.42-20.12 178.13-19.73 179-19.25 179.86-18.77 180.57-18.4 181.28-18.02 181.43-17.94L181.43-17.94Q183.92-16.55 185.37-14.53 186.82-12.5 186.82-9.55L186.82-9.55Q186.82-6.69 185.5-4.42L185.5-4.42Q184.16-2.15 181.94-0.83 179.72 0.49 177.01 0.49ZM200.95 0L200.95 0 195.31 0Q195.09 0 195.09-0.24L195.09-0.24 195.09-28.76 188.6-28.76Q188.36-28.76 188.36-29L188.36-29 188.41-34.59Q188.41-34.79 188.6-34.79L188.6-34.79 207.59-34.79Q207.86-34.79 207.86-34.59L207.86-34.59 207.86-29Q207.86-28.76 207.67-28.76L207.67-28.76 201.1-28.76 201.15-0.24Q201.15 0 200.95 0ZM226.64 0L226.64 0 210.47 0Q210.28 0 210.28-0.24L210.28-0.24 210.33-34.59Q210.33-34.79 210.52-34.79L210.52-34.79 226.59-34.79Q226.78-34.79 226.78-34.55L226.78-34.55 226.78-28.96Q226.78-28.76 226.59-28.76L226.59-28.76 216.33-28.76 216.33-20.95 226.59-20.95Q226.78-20.95 226.78-20.75L226.78-20.75 226.83-15.09Q226.83-14.89 226.64-14.89L226.64-14.89 216.33-14.89 216.33-6.15 226.64-6.15Q226.83-6.15 226.83-5.91L226.83-5.91 226.83-0.2Q226.83 0 226.64 0ZM240.48-0.05L240.48-0.05 231.52 0Q231.27 0 231.27-0.24L231.27-0.24 231.37-34.59Q231.37-34.79 231.56-34.79L231.56-34.79 240.91-34.84Q243.7-34.91 245.94-33.57L245.94-33.57Q248.21-32.23 249.57-29.94 250.92-27.66 250.92-24.9L250.92-24.9 250.92-10.55Q250.92-7.67 249.53-5.27L249.53-5.27Q248.12-2.91 245.77-1.5 243.43-0.1 240.48-0.05ZM240.91-28.86L240.91-28.86 237.42-28.81 237.37-6.15 240.48-6.15Q242.33-6.15 243.6-7.45 244.87-8.74 244.87-10.55L244.87-10.55 244.87-24.95Q244.87-26.54 243.7-27.72 242.53-28.91 240.91-28.86ZM273.7 0L273.7 0 268.08 0Q267.84 0 267.84-0.24L267.84-0.24 267.94-34.59Q267.94-34.79 268.13-34.79L268.13-34.79 277.75-34.79Q282.34-34.79 285.01-31.99 287.69-29.2 287.69-24.39L287.69-24.39Q287.69-20.87 286.3-18.26L286.3-18.26Q284.88-15.67 282.63-14.26 280.39-12.84 277.75-12.84L277.75-12.84 273.94-12.84 273.94-0.24Q273.94 0 273.7 0ZM277.75-28.86L277.75-28.86 273.94-28.81 273.94-18.9 277.75-18.9Q279.34-18.9 280.51-20.42 281.68-21.95 281.68-24.39L281.68-24.39Q281.68-26.34 280.63-27.6 279.58-28.86 277.75-28.86ZM307.44 0L307.44 0 291.27 0Q291.08 0 291.08-0.24L291.08-0.24 291.13-34.59Q291.13-34.79 291.32-34.79L291.32-34.79 307.39-34.79Q307.58-34.79 307.58-34.55L307.58-34.55 307.58-28.96Q307.58-28.76 307.39-28.76L307.39-28.76 297.13-28.76 297.13-20.95 307.39-20.95Q307.58-20.95 307.58-20.75L307.58-20.75 307.63-15.09Q307.63-14.89 307.44-14.89L307.44-14.89 297.13-14.89 297.13-6.15 307.44-6.15Q307.63-6.15 307.63-5.91L307.63-5.91 307.63-0.2Q307.63 0 307.44 0ZM322.74 0L322.74 0 317.1 0Q316.88 0 316.88-0.24L316.88-0.24 316.88-28.76 310.39-28.76Q310.14-28.76 310.14-29L310.14-29 310.19-34.59Q310.19-34.79 310.39-34.79L310.39-34.79 329.38-34.79Q329.65-34.79 329.65-34.59L329.65-34.59 329.65-29Q329.65-28.76 329.45-28.76L329.45-28.76 322.89-28.76 322.94-0.24Q322.94 0 322.74 0ZM354.25 0.49L354.25 0.49Q351.54 0.49 349.3-0.88L349.3-0.88Q347.08-2.25 345.77-4.55 344.46-6.86 344.46-9.69L344.46-9.69 344.51-25.29Q344.51-28.08 345.78-30.32L345.78-30.32Q347.05-32.59 349.29-33.97 351.52-35.35 354.25-35.35L354.25-35.35Q357.04-35.35 359.21-34.01L359.21-34.01Q361.41-32.67 362.71-30.38 364.02-28.1 364.02-25.29L364.02-25.29 364.02-23Q364.02-22.8 363.82-22.8L363.82-22.8 358.21-22.8Q358.01-22.8 358.01-23L358.01-23 358.01-25.29Q358.01-26.95 356.94-28.15 355.87-29.35 354.25-29.35L354.25-29.35Q352.47-29.35 351.52-28.13 350.57-26.9 350.57-25.29L350.57-25.29 350.57-9.69Q350.57-7.86 351.64-6.7 352.72-5.54 354.25-5.54L354.25-5.54Q355.87-5.54 356.94-6.82 358.01-8.11 358.01-9.69L358.01-9.69 358.01-12.01Q358.01-12.21 358.21-12.21L358.21-12.21 363.87-12.21Q364.07-12.21 364.07-12.01L364.07-12.01 364.07-9.69Q364.07-6.88 362.75-4.57L362.75-4.57Q361.41-2.27 359.21-0.89 357.01 0.49 354.25 0.49ZM366-0.24L366-0.24 372.2-34.59Q372.25-34.79 372.44-34.79L372.44-34.79 379.69-34.79Q379.89-34.79 379.94-34.59L379.94-34.59 385.89-0.24Q385.92 0 385.7 0L385.7 0 380.16 0Q379.91 0 379.89-0.24L379.89-0.24 379.35-3.91 372.54-3.91 372-0.24Q371.98 0 371.76 0L371.76 0 366.19 0Q366 0 366-0.24ZM378.35-9.25L376.3-23.29 376-25.15 375.79-23.29 373.54-9.25 378.35-9.25ZM394.87 0L394.87 0 389.21 0Q389.02 0 389.02-0.24L389.02-0.24 389.11-34.59Q389.11-34.79 389.31-34.79L389.31-34.79 399.42-34.79Q402.13-34.79 404.4-33.47L404.4-33.47Q406.67-32.15 408.02-29.93 409.38-27.71 409.38-24.9L409.38-24.9Q409.38-23.07 408.81-21.58L408.81-21.58Q408.25-20.09 407.51-19.07 406.76-18.04 406.15-17.55L406.15-17.55Q408.86-14.55 408.86-10.5L408.86-10.5 408.91-0.24Q408.91 0 408.67 0L408.67 0 403 0Q402.81 0 402.81-0.15L402.81-0.15 402.81-10.5Q402.81-12.3 401.54-13.62 400.27-14.94 398.41-14.94L398.41-14.94 395.12-14.94 395.07-0.24Q395.07 0 394.87 0ZM399.42-28.81L399.42-28.81 395.12-28.81 395.12-20.95 399.42-20.95Q400.95-20.95 402.16-22.09 403.37-23.24 403.37-24.9L403.37-24.9Q403.37-26.49 402.2-27.65 401.03-28.81 399.42-28.81ZM429.47 0L429.47 0 413.3 0Q413.11 0 413.11-0.24L413.11-0.24 413.16-34.59Q413.16-34.79 413.35-34.79L413.35-34.79 429.42-34.79Q429.61-34.79 429.61-34.55L429.61-34.55 429.61-28.96Q429.61-28.76 429.42-28.76L429.42-28.76 419.16-28.76 419.16-20.95 429.42-20.95Q429.61-20.95 429.61-20.75L429.61-20.75 429.66-15.09Q429.66-14.89 429.47-14.89L429.47-14.89 419.16-14.89 419.16-6.15 429.47-6.15Q429.66-6.15 429.66-5.91L429.66-5.91 429.66-0.2Q429.66 0 429.47 0ZM452.95 0L452.95 0 447.33 0Q447.09 0 447.09-0.24L447.09-0.24 447.19-34.59Q447.19-34.79 447.38-34.79L447.38-34.79 457-34.79Q461.59-34.79 464.26-31.99 466.94-29.2 466.94-24.39L466.94-24.39Q466.94-20.87 465.55-18.26L465.55-18.26Q464.13-15.67 461.88-14.26 459.64-12.84 457-12.84L457-12.84 453.19-12.84 453.19-0.24Q453.19 0 452.95 0ZM457-28.86L457-28.86 453.19-28.81 453.19-18.9 457-18.9Q458.59-18.9 459.76-20.42 460.93-21.95 460.93-24.39L460.93-24.39Q460.93-26.34 459.88-27.6 458.83-28.86 457-28.86ZM476.19 0L476.19 0 470.52 0Q470.33 0 470.33-0.24L470.33-0.24 470.43-34.59Q470.43-34.79 470.62-34.79L470.62-34.79 480.73-34.79Q483.44-34.79 485.71-33.47L485.71-33.47Q487.98-32.15 489.33-29.93 490.69-27.71 490.69-24.9L490.69-24.9Q490.69-23.07 490.13-21.58L490.13-21.58Q489.57-20.09 488.82-19.07 488.08-18.04 487.47-17.55L487.47-17.55Q490.18-14.55 490.18-10.5L490.18-10.5 490.23-0.24Q490.23 0 489.98 0L489.98 0 484.32 0Q484.12 0 484.12-0.15L484.12-0.15 484.12-10.5Q484.12-12.3 482.85-13.62 481.58-14.94 479.73-14.94L479.73-14.94 476.43-14.94 476.38-0.24Q476.38 0 476.19 0ZM480.73-28.81L480.73-28.81 476.43-28.81 476.43-20.95 480.73-20.95Q482.27-20.95 483.48-22.09 484.68-23.24 484.68-24.9L484.68-24.9Q484.68-26.49 483.51-27.65 482.34-28.81 480.73-28.81ZM503.68 0.49L503.68 0.49Q501.01 0.49 498.77-0.88L498.77-0.88Q496.55-2.25 495.19-4.53 493.84-6.81 493.84-9.55L493.84-9.55 493.89-25.39Q493.89-28.17 495.23-30.4L495.23-30.4Q496.55-32.64 498.79-34 501.04-35.35 503.68-35.35L503.68-35.35Q506.41-35.35 508.58-34.01L508.58-34.01Q510.78-32.67 512.11-30.41 513.44-28.15 513.44-25.39L513.44-25.39 513.49-9.55Q513.49-6.81 512.17-4.54L512.17-4.54Q510.83-2.25 508.61-0.88 506.39 0.49 503.68 0.49ZM503.68-5.54L503.68-5.54Q505.19-5.54 506.31-6.77 507.44-8.01 507.44-9.55L507.44-9.55 507.39-25.39Q507.39-27.05 506.34-28.2 505.29-29.35 503.68-29.35L503.68-29.35Q502.14-29.35 501.04-28.22 499.94-27.1 499.94-25.39L499.94-25.39 499.94-9.55Q499.94-7.91 501.04-6.73 502.14-5.54 503.68-5.54ZM528.92 0L528.92 0 522.86 0Q522.64 0 522.62-0.24L522.62-0.24 515.71-34.59Q515.66-34.79 515.9-34.79L515.9-34.79 521.57-34.79Q521.76-34.79 521.81-34.59L521.81-34.59 525.91-11.69 529.92-34.59Q529.97-34.79 530.16-34.79L530.16-34.79 535.75-34.79Q536.02-34.79 535.95-34.59L535.95-34.59 529.16-0.24Q529.14 0 528.92 0ZM544.78 0L544.78 0 539.12 0Q538.88 0 538.88-0.24L538.88-0.24 538.92-34.59Q538.92-34.79 539.12-34.79L539.12-34.79 544.73-34.79Q544.93-34.79 544.93-34.59L544.93-34.59 544.98-0.24Q544.98 0 544.78 0ZM558.58-0.05L558.58-0.05 549.62 0Q549.37 0 549.37-0.24L549.37-0.24 549.47-34.59Q549.47-34.79 549.66-34.79L549.66-34.79 559.01-34.84Q561.8-34.91 564.04-33.57L564.04-33.57Q566.31-32.23 567.67-29.94 569.02-27.66 569.02-24.9L569.02-24.9 569.02-10.55Q569.02-7.67 567.63-5.27L567.63-5.27Q566.22-2.91 563.87-1.5 561.53-0.1 558.58-0.05ZM559.01-28.86L559.01-28.86 555.52-28.81 555.47-6.15 558.58-6.15Q560.43-6.15 561.7-7.45 562.97-8.74 562.97-10.55L562.97-10.55 562.97-24.95Q562.97-26.54 561.8-27.72 560.63-28.91 559.01-28.86ZM589.31 0L589.31 0 573.15 0Q572.95 0 572.95-0.24L572.95-0.24 573-34.59Q573-34.79 573.2-34.79L573.2-34.79 589.26-34.79Q589.46-34.79 589.46-34.55L589.46-34.55 589.46-28.96Q589.46-28.76 589.26-28.76L589.26-28.76 579.01-28.76 579.01-20.95 589.26-20.95Q589.46-20.95 589.46-20.75L589.46-20.75 589.51-15.09Q589.51-14.89 589.31-14.89L589.31-14.89 579.01-14.89 579.01-6.15 589.31-6.15Q589.51-6.15 589.51-5.91L589.51-5.91 589.51-0.2Q589.51 0 589.31 0ZM599.81 0L599.81 0 594.14 0Q593.95 0 593.95-0.24L593.95-0.24 594.04-34.59Q594.04-34.79 594.24-34.79L594.24-34.79 604.35-34.79Q607.06-34.79 609.33-33.47L609.33-33.47Q611.6-32.15 612.95-29.93 614.31-27.71 614.31-24.9L614.31-24.9Q614.31-23.07 613.75-21.58L613.75-21.58Q613.18-20.09 612.44-19.07 611.7-18.04 611.08-17.55L611.08-17.55Q613.79-14.55 613.79-10.5L613.79-10.5 613.84-0.24Q613.84 0 613.6 0L613.6 0 607.94 0Q607.74 0 607.74-0.15L607.74-0.15 607.74-10.5Q607.74-12.3 606.47-13.62 605.2-14.94 603.35-14.94L603.35-14.94 600.05-14.94 600-0.24Q600 0 599.81 0ZM604.35-28.81L604.35-28.81 600.05-28.81 600.05-20.95 604.35-20.95Q605.88-20.95 607.09-22.09 608.3-23.24 608.3-24.9L608.3-24.9Q608.3-26.49 607.13-27.65 605.96-28.81 604.35-28.81Z" opacity="1" transform="matrix(1,0,0,1,0,0)" fill="#ffffff" class="slogan-text-1" data-fill-palette-color="secondary" id="text-1"></path></svg></g></svg></g></svg></g></svg></g></svg></g><defs></defs></svg><rect width="395.52" height="231.98159910383342" fill="none" stroke="none" visibility="hidden"></rect></g></svg></g></svg>